<svg xmlns="http://www.w3.org/2000/svg" width="19.276" height="19.277" viewBox="0 0 19.276 19.277">
  <path id="Instagram" d="M391.549,726.456a1.133,1.133,0,1,0,1.134,1.133A1.133,1.133,0,0,0,391.549,726.456Zm-5.038,1.453a4.76,4.76,0,1,0,4.76,4.76A4.766,4.766,0,0,0,386.511,727.91Zm0,7.809a3.049,3.049,0,1,1,3.05-3.049A3.053,3.053,0,0,1,386.511,735.719Zm9.605-7.006a5.806,5.806,0,0,0-5.806-5.806h-7.663a5.807,5.807,0,0,0-5.807,5.806v7.664a5.806,5.806,0,0,0,5.807,5.806h7.663a5.806,5.806,0,0,0,5.806-5.806Zm-1.819,7.664a3.987,3.987,0,0,1-3.988,3.987h-7.663a3.988,3.988,0,0,1-3.988-3.987v-7.664a3.988,3.988,0,0,1,3.988-3.988h7.663a3.988,3.988,0,0,1,3.988,3.988Z" transform="translate(-376.84 -722.907)" fill="#fff"/>
</svg>
